<?xml version="1.0" encoding="UTF-8"?>
<svg xmlns="http://www.w3.org/2000/svg" viewBox="0 0 157.64 138.82">
	<defs>
		<style>
			.cls-1 {
				fill: #231916
			}
		</style>
	</defs>
	<g id="Layer_2">
		<g id="title-treatment">
			<path d="M8.54 4.47V18.64H4V4.47H.62V.38h11.29v4.09ZM32 .38v18.26h-4.6v-7.2h-2.09v7.2h-4.57V.38h4.59V7.48h2.07V.38Zm14.32 11v3.22h4.8v4h-9.4V.38H51v4h-4.71v3.2h4.24v3.75Zm31.28.11v7.2H73V.38h9.19v4h-4.62v3.2h4.14v3.86ZM96 .38v18.26h-4.64V.38Zm20.91 4.7c0 2.48-1 3.32-2.38 4 1.43.36 2.38 1.92 2.38 4v2.45a6.07 6.07 0 0 0 .35 2.66v.41h-4.34a3.51 3.51 0 0 1-.45-2.05v-3.33c0-1.48-.39-2.09-1.59-2.09h-.56v7.51h-4.6V.38h6.46c3.19 0 4.7 1.64 4.7 4.57Zm-6.59 2.55h.68c1 0 1.38-.51 1.38-1.68v-.26c0-1.17-.41-1.61-1.38-1.61h-.74Zm19.4 4.44V13c0 1.63.69 2.47 1.84 2.47a1.36 1.36 0 0 0 1.48-1.5c0-1.1-.71-1.76-2.37-2.78l-1.54-.95C126.86 8.86 126 7.53 126 5.39c0-3.48 2.3-5.39 5.64-5.39 3.09 0 5.59 1.66 5.59 5.72v.66h-3.95v-.46c0-1.61-.64-2.35-1.66-2.35a1.26 1.26 0 0 0-1.38 1.33c0 .87.58 1.3 2.19 2.3l1.53.94c2.89 1.76 3.63 3.65 3.63 5.57 0 3.27-2.12 5.31-5.74 5.31-3.25 0-6.21-1.64-6.21-5.8v-1.15Zm23.92-7.6V18.64H149V4.47h-3.37V.38H157v4.09ZM12.8 59.67v2.69c0 4.92 2.08 7.46 5.54 7.46 3 0 4.46-1.85 4.46-4.54 0-3.31-2.16-5.31-7.15-8.38L11 54.05C4.34 50 1.65 46 1.65 39.52c0-10.45 6.92-16.22 17-16.22 9.31 0 16.84 5 16.84 17.22v2H23.56v-1.38c0-4.85-1.92-7.08-5-7.08a3.8 3.8 0 0 0-4.15 4C14.42 40.68 16.18 42 21 45l4.61 2.85c8.69 5.3 10.92 11 10.92 16.76 0 9.84-6.38 16-17.3 16C9.49 80.58.58 75.66.58 63.13v-3.46Z" class="cls-1"/>
			<path d="M19.26 81.16C7.2 81.16 0 74.42 0 63.13v-4h13.38v3.27c0 4.44 1.76 6.88 5 6.88 2.5 0 3.88-1.41 3.88-4 0-2.8-1.61-4.65-6.88-7.89l-4.61-2.84c-7-4.24-9.65-8.45-9.65-15 0-10.36 6.73-16.8 17.56-16.8 5.24 0 17.42 1.74 17.42 17.8v2.55H23v-2c0-3-.77-6.5-4.42-6.5-2.24 0-3.58 1.28-3.58 3.42 0 2.3 1.64 3.52 6.34 6.43l4.61 2.85c7.63 4.7 11.18 10.18 11.18 17.29 0 10.22-6.84 16.57-17.87 16.57ZM1.15 60.24v2.89C1.15 73.69 7.92 80 19.26 80 29.73 80 36 74.24 36 64.59c0-6.76-3.28-11.78-10.64-16.27l-4.62-2.85c-4.65-2.88-6.88-4.39-6.88-7.41 0-2.78 1.85-4.57 4.73-4.57 2.08 0 5.57 1 5.57 7.65V42h10.75v-1.48c0-10.58-5.93-16.64-16.27-16.64-10.12 0-16.41 6-16.41 15.64 0 6.19 2.47 10 9.1 14L16 56.41c5 3.09 7.42 5.21 7.42 8.87 0 3.2-1.88 5.11-5 5.11-3.89 0-6.12-2.93-6.12-8v-2.15ZM107.68 79.43h-14.3l-1-5.62h-9.85l-.92 5.62H68.08l12.22-55h15.07ZM84.3 62.82h6.23l-2.92-18.45h-.39Z" class="cls-1"/>
			<path d="M108.4 80H92.89l-1-5.61H83L82.1 80H67.36l12.48-56.12h16Zm-14.54-1.15H107L94.91 25H80.77l-12 53.82h12.35l.88-5.58h10.86ZM91.21 63.4h-7.58l3.1-19.61h1.37ZM85 62.24h4.88l-2.44-15.4ZM39.79 79.43h25.15l2.74-12.3H53.55V30.07l.08-5.62H39.79l.07 5.62v43.28l-.07 6.08z" class="cls-1"/>
			<path d="M65.4 80H39.2l.09-6.65V30.07l-.09-6.19h15l-.09 6.19v36.48H68.4Zm-25-1.15h24.08L67 67.7H53V25H40.37l.07 5v43.35ZM109.83 73.81V30.07l-.08-5.62h17.38L133.36 51h.38l5.84-26.53H157l-.08 5.62v43.72l.08 5.62h-12.5l.08-5.62V51h-.38l-6.62 28.45h-8.45L122.51 51h-.38v22.81l.08 5.62h-12.46Z" class="cls-1"/>
			<path d="M157.54 80h-13.62l.08-6.19V54.36L138 80h-9.37l-6-25.65v19.46l.08 6.19h-13.54l.08-6.19V30.07l-.08-6.19h18.41l6 25.34 5.58-25.34h18.42l-.08 6.19v43.74Zm-12.45-1.15h11.28l-.06-5V30.07l.06-5h-16.32l-5.85 26.49h-1.3L126.67 25h-16.33l.06 5v43.82l-.06 5h11.28l-.07-5V50.4H123l6.61 28.45h7.55l6.61-28.45h1.42v23.41ZM35.51 119.79c0 9.92-3.3 17.3-15 17.3H1.76l.08-5.61V87.73l-.08-5.61h18.76c11.3 0 14.92 6.69 15 17.3ZM21.83 100c0-3.61-.08-6.07-3.77-6.07h-2.54v31.29h2.54c3.69 0 3.77-2.46 3.77-6.07Z" class="cls-1"/>
			<path d="M20.52 137.67H1.18l.08-6.2V87.73l-.08-6.19h19.34c10.53 0 15.48 5.68 15.57 17.87v20.38c0 12.03-5.09 17.88-15.57 17.88Zm-18.17-1.16h18.17c9.84 0 14.42-5.31 14.42-16.72V99.42c-.09-11.57-4.53-16.73-14.42-16.73H2.35l.06 5v43.76Zm15.71-10.68H15V93.38h3.11c4.34 0 4.34 3.23 4.34 6.65v19.15c-.05 3.42-.05 6.65-4.39 6.65Zm-2-1.16h2c3.06 0 3.19-1.78 3.19-5.49V100c0-3.71-.13-5.5-3.19-5.5h-2ZM73.35 82.12l-.08 5.61v34.14c0 10.3-5.76 16.37-16.45 16.37s-16.76-6.07-16.76-16.37V87.73L40 82.12h13.82l-.08 5.61v33.06c0 3.15.77 4.77 3.16 4.77s3.15-1.69 3.15-4.77V87.73L60 82.12Z" class="cls-1"/>
			<path d="M56.82 138.82c-11 0-17.34-6.18-17.34-16.95V87.73l-.08-6.19h15l-.09 6.2v33.05c0 3.49 1 4.19 2.58 4.19s2.57-.68 2.57-4.19V87.73l-.08-6.19h14.56l-.09 6.2v34.13c0 10.77-6.21 16.95-17.03 16.95ZM40.57 82.69l.07 5v34.15c0 10.19 5.74 15.8 16.18 15.8 10.24 0 15.88-5.61 15.88-15.8V87.73l.07-5H60.56l.07 5v33.07c0 2.64-.45 5.34-3.73 5.34s-3.73-2.85-3.73-5.34V87.73l.07-5ZM79.57 131.48V87.73l-.08-5.61h11.38l10 24.52h.39V88.42l-.08-6.3h12.61l-.08 5.61v43.75l.08 5.61h-11.46l-9.92-24.45H92v18.15l.08 6.3H79.49Z" class="cls-1"/>
			<path d="M114.37 137.67h-12.43l-9.34-23v16.14l.08 6.88H78.91l.08-6.2V87.73l-.08-6.19h12.35l9.41 23.11V88.42l-.08-6.88h13.78l-.09 6.2v43.74Zm-11.66-1.16h10.49l-.07-5V87.73l.07-5h-11.44l.07 5.73v18.8h-1.35l-10-24.53h-10.4l.06 5v43.77l-.06 5h11.44l-.07-5.72v-18.72h1.34ZM155.14 82.12l-11.07 26.22 12.69 28.75h-15.38l-7.3-18.09h-.39v12.46l.08 5.61h-13.84l.08-5.61V87.73l-.08-5.61h13.84l-.08 5.61v12h.39l6.84-17.6Z" class="cls-1"/>
			<path d="M157.64 137.67H141L134.27 121v10.44l.09 6.19h-15l.08-6.2v-43.7l-.08-6.19h15l-.09 6.2v9.9l6.26-16.1H156l-11.3 26.79Zm-15.87-1.16h14.11l-12.43-28.17 10.83-25.65h-13l-6.85 17.61h-1.35V87.73l.07-5h-12.63l.06 5v43.76l-.06 5h12.67l-.07-5v-13h1.35Z" class="cls-1"/>
		</g>
	</g>
</svg>
